<svg xmlns="http://www.w3.org/2000/svg" width="23.643" height="25.882" viewBox="0 0 23.643 25.882">
  <path id="Path_9581" data-name="Path 9581" d="M22.7,5.882V4.588A2.608,2.608,0,0,0,20.076,2H9.568A2.608,2.608,0,0,0,6.941,4.588V5.882A3.912,3.912,0,0,0,3,9.765V24a3.912,3.912,0,0,0,3.941,3.882H22.7A3.912,3.912,0,0,0,26.643,24V9.765A3.912,3.912,0,0,0,22.7,5.882ZM9.568,4.588H20.076V9.765H9.568ZM24.016,24A1.3,1.3,0,0,1,22.7,25.294H6.941A1.3,1.3,0,0,1,5.627,24V9.765A1.3,1.3,0,0,1,6.941,8.47V9.765a2.608,2.608,0,0,0,2.627,2.588H20.076A2.608,2.608,0,0,0,22.7,9.765V8.47a1.3,1.3,0,0,1,1.314,1.294Z" transform="translate(-3 -2)" fill="#8e8e93"/>
</svg>
