<svg xmlns="http://www.w3.org/2000/svg" xmlns:xlink="http://www.w3.org/1999/xlink" width="24" height="24" viewBox="0 0 24 24"><defs><clipPath id="a"><rect width="24" height="24" transform="translate(1088 33)" fill="#231f20"/></clipPath></defs><g transform="translate(-1088 -33)" clip-path="url(#a)"><g transform="translate(1088 33)"><rect width="24" height="24" fill="none"/><line x1="0.1" y2="9.638" transform="translate(11.989 12)" fill="none" stroke="#000" stroke-linecap="round" stroke-linejoin="round" stroke-width="1.5"/><path d="M20.614,16.437V7.563a.75.75,0,0,0-.381-.653L12.358,2.459a.75.75,0,0,0-.738,0L3.745,6.91a.75.75,0,0,0-.381.653v8.875a.75.75,0,0,0,.381.653l7.875,4.451a.75.75,0,0,0,.738,0l7.875-4.451A.75.75,0,0,0,20.614,16.437Z" fill="none" stroke="#000" stroke-linecap="round" stroke-linejoin="round" stroke-width="1.5"/><path d="M20.512,7.184,12.089,12,3.468,7.183" fill="none" stroke="#000" stroke-linecap="round" stroke-linejoin="round" stroke-width="1.5"/><path d="M16.6,13.923v-4.5L7.9,4.563" fill="none" stroke="#000" stroke-linecap="round" stroke-linejoin="round" stroke-width="1.5"/></g></g></svg>