<svg xmlns="http://www.w3.org/2000/svg" width="18.203" height="19.879" viewBox="0 0 18.203 19.879"><g transform="translate(0 0)"><path d="M50.762,38.52a12.1,12.1,0,0,1-1.247-6.11v-.678A7.71,7.71,0,0,0,41.927,24h-.058a7.646,7.646,0,0,0-7.645,7.645v.765a12.1,12.1,0,0,1-1.247,6.11,1.529,1.529,0,0,0,1.32,2.3H49.442a1.529,1.529,0,0,0,1.32-2.3Z" transform="translate(-32.767 -24)" fill="#8f90a6"/><path d="M94.81,216H88.693a.765.765,0,0,0,0,1.529H94.81a.765.765,0,1,0,0-1.529Z" transform="translate(-82.657 -197.65)" fill="#8f90a6"/></g></svg>