<svg xmlns="http://www.w3.org/2000/svg" width="85.403" height="75.872" viewBox="0 0 85.403 75.872">
  <g id="Group_25540" data-name="Group 25540" transform="translate(-7.298 -10.5)">
    <path id="Path_9602" data-name="Path 9602" d="M59.23,35.119,24.865,94.491a6.25,6.25,0,0,0,5.409,9.381H99.005a6.25,6.25,0,0,0,5.409-9.381L70.049,35.119a6.25,6.25,0,0,0-10.818,0Z" transform="translate(-14.64 -19.5)" fill="#fdac42" opacity="0.2"/>
    <line id="Line_862" data-name="Line 862" y2="16" transform="translate(50 44)" fill="none" stroke="#fdac42" stroke-linecap="round" stroke-linejoin="round" stroke-width="4"/>
    <path id="Path_9603" data-name="Path 9603" d="M59.23,35.119,24.865,94.491a6.25,6.25,0,0,0,5.409,9.381H99.005a6.25,6.25,0,0,0,5.409-9.381L70.049,35.119a6.25,6.25,0,0,0-10.818,0Z" transform="translate(-14.64 -19.5)" fill="none" stroke="#fdac42" stroke-linecap="round" stroke-linejoin="round" stroke-width="4"/>
    <circle id="Ellipse_386" data-name="Ellipse 386" cx="3.5" cy="3.5" r="3.5" transform="translate(47 66)" fill="#fdac42"/>
  </g>
</svg>
